<?xml version="1.0" standalone="no"?><!DOCTYPE svg PUBLIC "-//W3C//DTD SVG 1.1//EN" "http://www.w3.org/Graphics/SVG/1.1/DTD/svg11.dtd"><svg t="1607924316575" class="icon" viewBox="0 0 1024 1024" version="1.1" xmlns="http://www.w3.org/2000/svg" p-id="12538" xmlns:xlink="http://www.w3.org/1999/xlink" width="200" height="200"><defs><style type="text/css"></style></defs><path d="M190.6 190.2h192.1v64.1H190.6zM510.7 190.2h192.1v64.1H510.7z" fill="#E6C27C" p-id="12539"></path><path d="M511.7 896h415.2v64H511.7z" fill="#727272" p-id="12540"></path><path d="M946.6 481.7c-17.9-17.9-46.8-17.9-64.7 0l-32.4 32.4 64.7 64.7 32.4-32.3c17.9-18 17.9-46.9 0-64.8zM817.2 546.4L623.1 740.5l64.7 64.7 194.1-194.1zM526.1 902.3l129.4-64.7-64.8-64.7z" fill="#5280C1" p-id="12541"></path><path d="M660.3 319.5H342.2v64.1h318.1v-64.1zM344.2 463.8v64.1h318.1v-64.1H344.2zM190.6 671.9h64V319.4h-64v352.5z m146.6 0.3h232.3l3.7-7.4 7.4 7.4h20.3l54.4-54.3v-9.7H337.2v64z" fill="#5280C1" p-id="12542"></path><path d="M64 64v736h441.6l28.8-57.7-1.8-1.8 4.6-4.6H128V128.1h639.3v377.7l64-64V64H64z m767.3 736v-47.8L783.5 800h47.8z" fill="#727272" p-id="12543"></path></svg>