<?xml version="1.0" standalone="no"?><!DOCTYPE svg PUBLIC "-//W3C//DTD SVG 1.1//EN" "http://www.w3.org/Graphics/SVG/1.1/DTD/svg11.dtd"><svg t="1607926478683" class="icon" viewBox="0 0 1024 1024" version="1.1" xmlns="http://www.w3.org/2000/svg" p-id="3992" xmlns:xlink="http://www.w3.org/1999/xlink" width="200" height="200"><defs><style type="text/css"></style></defs><path d="M512 916.4c-84.3 0-162.3-28.3-219.6-79.8-59.6-53.5-92.4-128.4-92.4-210.9v-13.2c0-40.6 12.3-91.5 36.6-151.3 20.9-51.5 49.9-107.3 83.8-161.4 32.1-51.2 67-98 98.1-131.5 37.9-40.8 68.4-60.7 93.4-60.7h4.2l4 1.4c59 20.6 133.4 97.6 199 206C784.8 423.4 824 534.6 824 612.5v13.2c0 82.5-32.8 157.4-92.4 210.9-57.3 51.4-135.3 79.8-219.6 79.8z m-2.9-758.1c-7.4 2.6-25.5 13.4-54.6 44.9s-61.8 75.6-92.2 124.1C293 438 250 547.3 250 612.5v13.2c0 139.5 110.2 240.7 262 240.7s262-101.2 262-240.7v-13.2c0-68.1-37.4-172.2-97.5-271.6-55.9-92.2-120.8-162.8-167.4-182.6z" p-id="3993"></path><path d="M434.5 800.4c-44.2-31.4-75.5-69.6-93-113.6-14.1-35.4-19.1-74.1-14.7-114.8 7.1-67.1 37.6-117.7 38.9-119.8l68.3 41.7 0.1-0.1c-0.2 0.4-23.3 39.3-28 89.1-5.8 61.7 19.4 112.9 74.8 152.3l-46.4 65.2z" p-id="3994"></path></svg>