<svg t="1607445363675" class="icon" viewBox="0 0 1024 1024" version="1.1" xmlns="http://www.w3.org/2000/svg" p-id="961" data-spm-anchor-id="a313x.7781069.0.i6" width="128" height="128"><path d="M512 520c-81 0-147-66-147-147s66-147 147-147 147 66 147 147-66 147-147 147z m0-252c-57.9 0-105 47.1-105 105s47.1 105 105 105 105-47.1 105-105-47.1-105-105-105zM757.8 798h-42v-32.1C715.8 653.5 624.4 562 512 562s-203.8 91.4-203.8 203.8V798h-42v-32.1C266.2 630.3 376.4 520 512 520s245.8 110.3 245.8 245.8V798z" fill="#2c2c2c" p-id="962" data-spm-anchor-id="a313x.7781069.0.i9" class="selected"></path><path d="M493.4 690.455l132.157-132.157 29.698 29.698-132.157 132.157z" fill="#2c2c2c" p-id="963" data-spm-anchor-id="a313x.7781069.0.i7" class=""></path><path d="M617 793h-42c0-34.7-28.3-63-63-63s-63 28.3-63 63h-42c0-57.9 47.1-105 105-105s105 47.1 105 105z" fill="#2c2c2c" p-id="964" data-spm-anchor-id="a313x.7781069.0.i10" class="selected"></path></svg>
